<svg aria-hidden="true" style="width:0;height:0;position:absolute;overflow:hidden" xmlns="http://www.w3.org/2000/svg"><defs><symbol id="icon-phone" viewBox="0 0 34 32"><path fill="#fff" style="fill:var(--color1,#fff)" d="M29.73 16.506c-.552-.545-1.241-.545-1.789 0-.418.414-.836.829-1.248 1.251-.112.116-.207.14-.344.063-.271-.148-.559-.267-.819-.428-1.212-.763-2.228-1.743-3.129-2.847-.446-.548-.843-1.135-1.12-1.796-.057-.133-.046-.222.062-.331.419-.404.827-.819 1.237-1.234.573-.576.573-1.251-.004-1.831-.326-.33-.653-.653-.98-.984-.338-.338-.671-.678-1.012-1.012-.551-.538-1.24-.538-1.788.004-.421.414-.827.84-1.255 1.247-.396.376-.597.836-.64 1.374-.066.876.148 1.701.451 2.507.619 1.665 1.56 3.145 2.702 4.501a16.833 16.833 0 0 0 5.442 4.29l.098.044c.97.471 1.975.833 3.068.893.753.042 1.406-.148 1.93-.735.359-.4.763-.766 1.142-1.149.563-.569.566-1.258.007-1.82-.668-.67-1.323-1.324-1.979-1.976l-.03-.03zm-.672-2.801 1.298-.221a5.803 5.803 0 0 0-1.62-3.128 5.75 5.75 0 0 0-3.273-1.644l-.031-.004-.183 1.304a4.478 4.478 0 0 1 2.559 1.275 4.466 4.466 0 0 1 1.247 2.391l.004.027zm2.028-5.637a9.535 9.535 0 0 0-5.432-2.728l-.051-.006-.183 1.304A8.297 8.297 0 0 1 30.158 9a8.262 8.262 0 0 1 2.316 4.431l.007.05 1.296-.221a9.644 9.644 0 0 0-2.693-5.191z"/></symbol><symbol id="icon-location" viewBox="0 0 32 32"><path fill="#fff" style="fill:var(--color1,#fff)" d="M26.502 7.964c-.113-.427-.346-.881-.516-1.28C23.936 1.764 19.464 0 15.85 0 11.012 0 5.689 3.243 4.978 9.928v1.365c0 .056.019.568.049.824.397 3.187 2.912 6.571 4.789 9.756 2.02 3.415 4.115 6.771 6.193 10.127 1.28-2.191 2.554-4.408 3.806-6.543.339-.625.736-1.25 1.077-1.848.228-.397.663-.796.862-1.167 2.02-3.697 5.271-7.422 5.271-11.093V9.843c0-.399-.493-1.792-.521-1.879zM15.94 14.82c-1.421 0-2.978-.712-3.746-2.673-.113-.312-.105-.941-.105-.998v-.881c0-2.504 2.125-3.64 3.974-3.64 2.276 0 4.036 1.82 4.036 4.096 0 2.278-1.882 4.096-4.16 4.096z"/></symbol></defs></svg>