<svg aria-hidden="true" style="position: absolute; width: 0; height: 0; overflow: hidden;" version="1.1" xmlns="http://www.w3.org/2000/svg" xmlns:xlink="http://www.w3.org/1999/xlink">
<defs>
<symbol id="icon-phone" viewBox="0 0 34 32">
<path fill="#fff" style="fill: var(--color1, #fff)" d="M29.73 16.506c-0.552-0.545-1.241-0.545-1.789 0-0.418 0.414-0.836 0.829-1.248 1.251-0.112 0.116-0.207 0.14-0.344 0.063-0.271-0.148-0.559-0.267-0.819-0.428-1.212-0.763-2.228-1.743-3.129-2.847-0.446-0.548-0.843-1.135-1.12-1.796-0.057-0.133-0.046-0.222 0.062-0.331 0.419-0.404 0.827-0.819 1.237-1.234 0.573-0.576 0.573-1.251-0.004-1.831-0.326-0.33-0.653-0.653-0.98-0.984-0.338-0.338-0.671-0.678-1.012-1.012-0.551-0.538-1.24-0.538-1.788 0.004-0.421 0.414-0.827 0.84-1.255 1.247-0.396 0.376-0.597 0.836-0.64 1.374-0.066 0.876 0.148 1.701 0.451 2.507 0.619 1.665 1.56 3.145 2.702 4.501 1.506 1.797 3.35 3.255 5.442 4.29l0.098 0.044c0.97 0.471 1.975 0.833 3.068 0.893 0.753 0.042 1.406-0.148 1.93-0.735 0.359-0.4 0.763-0.766 1.142-1.149 0.563-0.569 0.566-1.258 0.007-1.82-0.668-0.67-1.323-1.324-1.979-1.976l-0.030-0.030zM29.058 13.705l1.298-0.221c-0.216-1.233-0.794-2.304-1.62-3.128l-0-0c-0.864-0.869-2.002-1.464-3.273-1.644l-0.031-0.004-0.183 1.304c1.008 0.143 1.89 0.603 2.559 1.275l0 0c0.638 0.637 1.085 1.465 1.247 2.391l0.004 0.027zM31.086 8.068c-1.433-1.442-3.322-2.43-5.432-2.728l-0.051-0.006-0.183 1.304c1.867 0.265 3.498 1.118 4.738 2.362l0 0c1.185 1.179 2.015 2.714 2.316 4.431l0.007 0.050 1.296-0.221c-0.36-2.046-1.322-3.824-2.693-5.191l-0-0z"></path>
</symbol>
<symbol id="icon-location" viewBox="0 0 32 32">
<path fill="#fff" style="fill: var(--color1, #fff)" d="M26.502 7.964c-0.113-0.427-0.346-0.881-0.516-1.28-2.050-4.92-6.522-6.684-10.136-6.684-4.838 0-10.161 3.243-10.872 9.928v1.365c0 0.056 0.019 0.568 0.049 0.824 0.397 3.187 2.912 6.571 4.789 9.756 2.020 3.415 4.115 6.771 6.193 10.127 1.28-2.191 2.554-4.408 3.806-6.543 0.339-0.625 0.736-1.25 1.077-1.848 0.228-0.397 0.663-0.796 0.862-1.167 2.020-3.697 5.271-7.422 5.271-11.093v-1.506c0-0.399-0.493-1.792-0.521-1.879zM15.94 14.82c-1.421 0-2.978-0.712-3.746-2.673-0.113-0.312-0.105-0.941-0.105-0.998v-0.881c0-2.504 2.125-3.64 3.974-3.64 2.276 0 4.036 1.82 4.036 4.096 0 2.278-1.882 4.096-4.16 4.096z"></path>
</symbol>
</defs>
</svg>
